<?xml version="1.0" encoding="UTF-8" standalone="no"?>
<!-- Created with Inkscape (http://www.inkscape.org/) -->

<svg
   xmlns:dc="http://purl.org/dc/elements/1.1/"
   xmlns:cc="http://creativecommons.org/ns#"
   xmlns:rdf="http://www.w3.org/1999/02/22-rdf-syntax-ns#"
   xmlns:svg="http://www.w3.org/2000/svg"
   xmlns="http://www.w3.org/2000/svg"
   xmlns:sodipodi="http://sodipodi.sourceforge.net/DTD/sodipodi-0.dtd"
   xmlns:inkscape="http://www.inkscape.org/namespaces/inkscape"
   width="120.80582mm"
   height="120.80582mm"
   viewBox="0 0 120.80582 120.80582"
   version="1.1"
   id="svg8"
   inkscape:version="0.92.4 (5da689c313, 2019-01-14)"
   sodipodi:docname="airplane.svg">
  <defs
     id="defs2" />
  <sodipodi:namedview
     id="base"
     pagecolor="#ffffff"
     bordercolor="#666666"
     borderopacity="1.0"
     inkscape:pageopacity="0.0"
     inkscape:pageshadow="2"
     inkscape:zoom="0.49497475"
     inkscape:cx="-358.17597"
     inkscape:cy="116.82646"
     inkscape:document-units="mm"
     inkscape:current-layer="layer1"
     showgrid="false"
     fit-margin-top="0"
     fit-margin-left="0"
     fit-margin-right="0"
     fit-margin-bottom="0"
     inkscape:window-width="1920"
     inkscape:window-height="1147"
     inkscape:window-x="-8"
     inkscape:window-y="-8"
     inkscape:window-maximized="1" />
  <metadata
     id="metadata5">
    <rdf:RDF>
      <cc:Work
         rdf:about="">
        <dc:format>image/svg+xml</dc:format>
        <dc:type
           rdf:resource="http://purl.org/dc/dcmitype/StillImage" />
        <dc:title></dc:title>
      </cc:Work>
    </rdf:RDF>
  </metadata>
  <g
     inkscape:label="Layer 1"
     inkscape:groupmode="layer"
     id="layer1"
     transform="translate(-34.687206,-87.926224)">
    <path
       style="fill:#000000;stroke-width:0.26458335"
       d="m 76.674899,200.64282 c -1.636506,-1.47256 -6.775543,-5.64007 -6.954885,-5.64007 -0.08256,0 -0.620371,-0.44648 -1.195136,-0.99219 -1.444797,-1.37174 -3.42991,-3.0594 -3.947858,-3.3563 -0.237424,-0.13609 -0.569879,-0.37422 -0.738786,-0.52916 -0.16891,-0.15495 -0.819115,-0.69844 -1.4449,-1.20777 -2.805626,-2.28348 -2.97838,-2.49344 -2.613139,-3.17589 0.382252,-0.71424 0.524495,-0.89307 1.983896,-2.49414 4.141706,-4.54374 5.803318,-6.76538 5.059966,-6.76538 -0.200729,0 -0.513183,0.17859 -0.694341,0.39687 -0.181157,0.21828 -0.453639,0.39688 -0.605515,0.39688 -0.151873,0 -0.464716,0.18189 -0.695206,0.4042 -0.654849,0.63161 -2.851425,2.60792 -3.242074,2.91697 -0.193598,0.15316 -1.152083,0.95683 -2.129967,1.78594 -0.977884,0.82911 -1.933636,1.50747 -2.123892,1.50747 -0.361437,0 -1.071912,-0.73767 -3.05797,-3.175 -0.652176,-0.80036 -1.347308,-1.55042 -1.54474,-1.66679 -0.197432,-0.11638 -0.358968,-0.32995 -0.358968,-0.47462 0,-0.14466 -0.586497,-0.96777 -1.303325,-1.82912 -1.661792,-1.99685 -1.749321,-2.09994 -2.537242,-2.98841 -0.361543,-0.40769 -0.657919,-0.8244 -0.658614,-0.92605 -6.96e-4,-0.10164 -0.442892,-0.66105 -0.982658,-1.24314 -0.539766,-0.58208 -1.971338,-2.29332 -3.18127,-3.80274 -2.327589,-2.90375 -2.406291,-3.15406 -1.397932,-4.44616 0.925311,-1.18568 2.063174,-1.93756 2.93224,-1.93756 0.739222,0 2.662812,0.89108 3.552788,1.64578 0.147796,0.12534 1.757002,1.28973 3.576013,2.58756 1.81901,1.29782 3.426354,2.45808 3.571874,2.57835 0.145521,0.12027 1.276615,0.89918 2.513542,1.73093 1.236927,0.83173 2.759191,1.86928 3.382809,2.30565 0.708443,0.49573 1.452956,0.78886 1.984375,0.7813 0.778859,-0.0111 1.14681,-0.3845 4.366871,-4.43177 4.030868,-5.06637 4.629165,-5.78445 6.792666,-8.15268 3.076484,-3.3676 3.574184,-3.94203 3.577875,-4.12953 0.0021,-0.10428 0.390689,-0.58806 0.863632,-1.07505 0.472942,-0.48699 1.693333,-1.80134 2.711979,-2.92077 1.018646,-1.11943 2.328333,-2.55207 2.910416,-3.18364 0.582084,-0.63158 2.010833,-2.20847 3.175,-3.5042 1.164167,-1.29574 2.622677,-2.87757 3.241147,-3.51518 0.61846,-0.63761 1.12448,-1.2076 1.12448,-1.26664 0,-0.059 0.50601,-0.61575 1.12448,-1.23713 1.2404,-1.24626 7.19481,-7.5945 7.95284,-8.47885 1.35298,-1.57846 6.20596,-6.68216 11.0831,-11.6557 5.02874,-5.12814 5.59782,-5.62568 6.96674,-6.091 1.1076,-0.37648 1.60641,-0.43443 1.94097,-0.2255 0.24765,0.15466 0.84669,0.36827 1.3312,0.47469 1.12348,0.24675 5.69947,4.72984 6.75787,6.62067 0.99405,1.77587 0.98611,3.20013 -0.0253,4.53926 -1.04233,1.38008 -3.0622,3.55386 -5.22288,5.62083 -4.4869,4.29231 -6.96532,6.63545 -11.78329,11.14009 -2.10047,1.96386 -4.54037,4.28503 -5.42202,5.15816 -1.47509,1.46085 -4.77769,4.43123 -7.90702,7.11164 -0.7002,0.59974 -1.53363,1.38165 -1.85209,1.73757 -1.23296,1.37801 -4.39805,4.31656 -4.86012,4.51225 -0.1718,0.0728 -1.56418,1.30534 -3.09416,2.73906 -1.529991,1.43373 -3.171966,2.89463 -3.648837,3.24646 -0.476872,0.35182 -0.965648,0.81588 -1.08617,1.03125 -0.120529,0.21536 -0.391817,0.39156 -0.602867,0.39156 -0.21105,0 -0.383728,0.1015 -0.383728,0.22555 0,0.12406 -0.684609,0.76929 -1.521354,1.43385 -1.461476,1.16074 -2.232525,1.83406 -4.342077,3.79171 -0.532754,0.49439 -1.098301,0.89889 -1.25677,0.89889 -0.158472,0 -0.288132,0.11757 -0.288132,0.26127 0,0.14369 -0.446484,0.54932 -0.992187,0.90139 -0.545703,0.35207 -1.368131,0.97865 -1.827615,1.39238 -0.459485,0.41374 -1.154572,0.99038 -1.54464,1.28142 -1.294849,0.96613 -1.985557,1.69122 -1.985557,2.08438 0,0.21374 0.386953,0.90418 0.859896,1.53429 0.472942,0.63011 1.213757,1.68103 1.646256,2.33537 0.432495,0.65434 1.05937,1.5469 1.393049,1.98346 0.333682,0.43656 0.696201,0.91281 0.805601,1.05834 0.281966,0.37506 2.254136,3.28449 2.571239,3.7932 0.145521,0.23345 0.860499,1.26142 1.588839,2.28438 3.020652,4.24251 3.366889,5.06549 2.753817,6.54558 -0.57895,1.39771 -1.440481,2.11223 -2.720813,2.25654 -1.070896,0.12071 -1.265674,0.0447 -2.321451,-0.90526 z m 56.605041,-17.72566 c -1.93487,-1.55385 -3.94311,-3.19095 -4.46275,-3.63802 -1.71307,-1.4738 -2.28405,-1.93322 -2.69464,-2.16818 -0.22315,-0.12769 -1.10291,-0.84644 -1.95501,-1.59722 -0.85211,-0.75078 -3.45756,-2.89422 -5.78989,-4.76321 -2.33233,-1.869 -4.41593,-3.55036 -4.63021,-3.73637 -0.21428,-0.18602 -0.80633,-0.70376 -1.31565,-1.15054 -1.02525,-0.89935 -9.08514,-7.36374 -10.64948,-8.54136 -0.5457,-0.41079 -0.99218,-0.93041 -0.99218,-1.15471 0,-0.43864 1.6578,-2.11531 5.42083,-5.48251 2.59594,-2.32288 5.84694,-5.28497 6.51412,-5.93522 5.28951,-5.15526 9.05167,-8.62345 9.57023,-8.82244 0.36263,-0.13916 0.77276,0.28868 1.9159,1.99863 1.95624,2.92623 3.20349,4.69498 3.83556,5.43932 0.28853,0.33978 0.5246,0.73309 0.5246,0.87401 0,0.14092 0.63211,1.05354 1.40469,2.02804 0.77258,0.97451 1.63578,2.11699 1.91823,2.53886 0.28245,0.42187 0.72064,1.07671 0.97375,1.45521 0.25312,0.3785 0.59965,0.95606 0.77008,1.28348 0.17042,0.32743 0.39805,0.59532 0.50584,0.59532 0.10779,0 0.44312,0.38695 0.74519,0.85989 0.30206,0.47295 0.70078,1.0945 0.88603,1.38123 0.18525,0.28673 0.9619,1.38691 1.72588,2.44484 0.76399,1.05793 1.38906,2.00314 1.38906,2.10046 0,0.0973 0.4513,0.78308 1.00288,1.52391 0.55158,0.74083 1.68539,2.35899 2.51958,3.59592 2.04441,3.0314 3.17174,4.66399 4.20209,6.08542 1.56841,2.16371 1.88011,2.93551 1.86994,4.6302 -0.007,1.1618 -0.18231,1.91135 -0.65389,2.79515 -0.73632,1.37998 -6.80488,7.56116 -7.79178,7.93638 -0.35976,0.13678 -1.23617,0.24868 -1.94758,0.24868 -1.24785,0 -1.41758,-0.0996 -4.81142,-2.82517 z M 86.366054,141.64364 c -0.579726,-0.6799 -1.232641,-1.4283 -1.450922,-1.6631 -0.218282,-0.23479 -0.91144,-1.09957 -1.540352,-1.92172 -0.628909,-0.82215 -1.410689,-1.7704 -1.737285,-2.10722 -0.326597,-0.33682 -1.608789,-1.87337 -2.849314,-3.41456 -1.240523,-1.54119 -2.482807,-3.0396 -2.760628,-3.32979 -0.27782,-0.2902 -0.683723,-0.80419 -0.902004,-1.14221 -0.420307,-0.65085 -1.864879,-2.42464 -2.156301,-2.64771 -0.09505,-0.0728 -1.011113,-1.20386 -2.035686,-2.51354 -1.024575,-1.30969 -2.078101,-2.61412 -2.341168,-2.89874 -0.263067,-0.28461 -0.996119,-1.17758 -1.629002,-1.98437 -0.632886,-0.80679 -1.228498,-1.52642 -1.323586,-1.59919 -0.09509,-0.0728 -0.677876,-0.79719 -1.295085,-1.60985 -0.61721,-0.81265 -1.658705,-2.04554 -2.314435,-2.73973 -0.65573,-0.6942 -1.192236,-1.32246 -1.192236,-1.39614 0,-0.0737 -0.446485,-0.68627 -0.992188,-1.36131 -2.039493,-2.52287 -2.295297,-3.0069 -2.241563,-4.24154 0.0665,-1.52798 0.384546,-1.97285 4.010126,-5.609171 3.482805,-3.493128 3.853015,-3.762354 5.788347,-4.209447 1.203772,-0.278091 1.6402,-0.258992 3.042708,0.133159 0.900549,0.251799 1.696892,0.547262 1.769652,0.656585 0.07276,0.109323 0.787136,0.632254 1.5875,1.162068 1.950583,1.291219 4.013256,2.734907 4.488209,3.141346 0.212942,0.18223 0.58941,0.45038 0.836594,0.5959 0.247182,0.14552 0.995691,0.65154 1.663353,1.12448 0.66766,0.47294 1.719943,1.21492 2.338406,1.64885 0.618464,0.43392 1.779323,1.26565 2.579688,1.8483 0.800364,0.58263 1.812395,1.25446 2.248958,1.49295 0.436562,0.23849 1.27,0.80827 1.85208,1.26618 0.58209,0.45791 1.59412,1.1847 2.24896,1.61508 0.65484,0.43039 1.67914,1.172 2.27621,1.64803 0.59707,0.47603 1.21364,0.86551 1.37016,0.86551 0.15652,0 0.44191,0.15668 0.63421,0.34817 0.19229,0.19149 1.27079,0.99516 2.39667,1.78594 1.12588,0.79077 2.91182,2.0566 3.96875,2.81295 1.05694,0.75636 2.49127,1.70886 3.1874,2.11667 1.41752,0.83042 1.78345,1.62472 1.16527,2.52935 -0.22302,0.32636 -1.75419,1.98079 -3.40261,3.67652 -1.64841,1.69572 -4.30679,4.48517 -5.90752,6.19878 -1.60073,1.7136 -3.4462,3.66743 -4.10104,4.34183 -0.65484,0.6744 -1.96453,2.10308 -2.91042,3.17484 -1.88397,2.13468 -3.113273,3.44204 -3.236511,3.44204 -0.04364,0 -0.553672,-0.55629 -1.133395,-1.23619 z m 55.671186,-17.22521 c -0.93055,-0.84044 -2.34675,-2.05589 -3.14712,-2.70101 -0.80036,-0.64512 -1.91085,-1.62437 -2.46776,-2.1761 -0.5569,-0.55174 -1.09268,-1.0069 -1.19062,-1.01147 -0.0979,-0.005 -0.39635,-0.308 -0.66312,-0.67429 -0.44754,-0.61447 -0.45266,-0.7154 -0.0661,-1.30529 0.2304,-0.35163 0.4189,-0.81508 0.4189,-1.02989 0,-0.21482 0.12736,-0.46928 0.28302,-0.56549 0.27716,-0.17129 0.76158,0.3023 2.6274,2.56867 0.50932,0.61867 1.59844,1.84418 2.42027,2.72337 0.82182,0.87919 1.93636,2.1343 2.47675,2.78915 0.5404,0.65484 1.08839,1.23031 1.21776,1.27882 0.30149,0.11304 0.30977,1.6316 0.009,1.6316 -0.12447,0 -0.98768,-0.68764 -1.91823,-1.52807 z m -13.7966,-9.65075 c -1.08022,-1.14931 -1.78593,-2.12861 -1.78593,-2.47829 0,-0.62273 1.30895,-1.55581 2.59114,-1.84708 0.39388,-0.0895 1.21666,-0.39606 1.82839,-0.6813 0.613,-0.28583 1.5037,-0.48099 1.98437,-0.4348 0.82221,0.079 0.87681,0.14855 0.9538,1.21441 0.0525,0.72657 -0.10705,1.53024 -0.44642,2.24896 -0.29044,0.61511 -0.59982,1.56144 -0.68753,2.10296 -0.17869,1.10327 -0.95132,1.79849 -1.98315,1.78442 -0.48128,-0.007 -1.16933,-0.54174 -2.45467,-1.90928 z m -2.84427,-5.96302 c 0,-0.11468 -0.68461,-0.95271 -1.52135,-1.8623 -0.83674,-0.90958 -1.81901,-2.02287 -2.18281,-2.47396 -0.3638,-0.45108 -1.25677,-1.47214 -1.98438,-2.26902 -0.7276,-0.79688 -1.4124,-1.6036 -1.52177,-1.79272 -0.22086,-0.38189 0.005,-1.183089 0.33367,-1.183089 0.11578,0 1.51257,1.160859 3.10398,2.579689 3.96863,3.53824 5.88405,5.18687 6.317,5.43711 0.58662,0.33905 0.42386,0.81196 -0.45078,1.30977 -0.83363,0.47447 -2.09356,0.62764 -2.09356,0.25452 z"
       id="path826"
       inkscape:connector-curvature="0" />
  </g>
</svg>
