<?xml version="1.0" encoding="UTF-8" standalone="no"?>
<!-- Created with Inkscape (http://www.inkscape.org/) -->

<svg
   xmlns:dc="http://purl.org/dc/elements/1.1/"
   xmlns:cc="http://creativecommons.org/ns#"
   xmlns:rdf="http://www.w3.org/1999/02/22-rdf-syntax-ns#"
   xmlns:svg="http://www.w3.org/2000/svg"
   xmlns="http://www.w3.org/2000/svg"
   xmlns:sodipodi="http://sodipodi.sourceforge.net/DTD/sodipodi-0.dtd"
   xmlns:inkscape="http://www.inkscape.org/namespaces/inkscape"
   width="49.097767mm"
   height="49.097767mm"
   viewBox="0 0 49.097767 49.097767"
   version="1.1"
   id="svg1057"
   inkscape:version="0.92.4 (5da689c313, 2019-01-14)"
   sodipodi:docname="pilot_icon.svg">
  <defs
     id="defs1051" />
  <sodipodi:namedview
     id="base"
     pagecolor="#ffffff"
     bordercolor="#666666"
     borderopacity="1.0"
     inkscape:pageopacity="0.0"
     inkscape:pageshadow="2"
     inkscape:zoom="2.8"
     inkscape:cx="113.88301"
     inkscape:cy="86.690023"
     inkscape:document-units="mm"
     inkscape:current-layer="g1801"
     showgrid="false"
     fit-margin-top="0"
     fit-margin-left="0"
     fit-margin-right="0"
     fit-margin-bottom="0"
     inkscape:window-width="1920"
     inkscape:window-height="1147"
     inkscape:window-x="-8"
     inkscape:window-y="-8"
     inkscape:window-maximized="1" />
  <metadata
     id="metadata1054">
    <rdf:RDF>
      <cc:Work
         rdf:about="">
        <dc:format>image/svg+xml</dc:format>
        <dc:type
           rdf:resource="http://purl.org/dc/dcmitype/StillImage" />
        <dc:title></dc:title>
      </cc:Work>
    </rdf:RDF>
  </metadata>
  <g
     inkscape:label="Layer 1"
     inkscape:groupmode="layer"
     id="layer1"
     transform="translate(-66.921358,-152.25469)">
    <g
       id="g1801"
       transform="matrix(1.051335,0,0,1.051335,-4.6911114,-9.0684861)">
      <path
         inkscape:connector-curvature="0"
         style="fill:#000000;stroke-width:0.16406225"
         d="m 98.324177,193.47266 c -0.526211,-0.27131 -1.652581,-1.79016 -5.788457,-7.80542 -0.169517,-0.24655 -0.761871,-0.33719 -3.906602,-0.59775 -2.551707,-0.21145 -3.86363,-0.38827 -4.210118,-0.56744 -0.571185,-0.29537 -1.059266,-0.86031 -1.323233,-1.53161 -0.317028,-0.80624 -2.863371,-12.57334 -2.868257,-13.25474 -0.02083,-2.90751 4.071679,-3.92015 5.41158,-1.33903 0.148099,0.2853 0.772276,2.80182 1.387064,5.59226 0.61479,2.79044 1.175048,5.12452 1.245024,5.18681 0.06997,0.0623 1.628703,0.22454 3.463829,0.36052 4.598826,0.34079 4.019519,-0.16594 7.135577,6.24164 2.855566,5.87196 2.964176,6.25597 2.051036,7.25237 -0.6928,0.75599 -1.685321,0.93267 -2.597443,0.46239 z"
         id="path1716" />
      <path
         inkscape:connector-curvature="0"
         style="fill:#000000;fill-opacity:1;stroke-width:0.16406225"
         d="m 85.691381,189.30286 c -2.481439,-0.35254 -4.752208,-0.68066 -5.046155,-0.72917 -0.313463,-0.0517 -0.639915,-0.24918 -0.789533,-0.47752 -0.505779,-0.77193 -3.776033,-14.94008 -3.605369,-15.62005 0.151015,-0.60168 0.741155,-1.03778 1.404347,-1.03778 1.128629,0 1.180603,0.13367 2.718303,6.99075 0.766702,3.41894 1.438581,6.46206 1.493067,6.76249 0.06343,0.34975 0.223371,0.59156 0.444633,0.67227 0.190054,0.0693 2.117429,0.36283 4.283051,0.65223 2.165622,0.28941 4.144005,0.60637 4.396401,0.70435 0.593961,0.2306 0.989843,0.98815 0.849743,1.62604 -0.114554,0.52153 -0.567061,0.89819 -1.22662,1.02099 -0.225585,0.042 -2.440428,-0.21207 -4.921868,-0.5646 z"
         id="path1714" />
      <path
         inkscape:connector-curvature="0"
         style="fill:#000000;stroke-width:0.16406225"
         d="m 80.031237,164.97612 c -0.759999,-0.33201 -1.536937,-1.05763 -1.930055,-1.80255 -0.460011,-0.87169 -0.499504,-2.71105 -0.07512,-3.49906 0.761816,-1.41455 2.39765,-2.30699 3.902125,-2.1288 2.05097,0.24291 3.427865,1.80336 3.427865,3.88483 0,1.53696 -0.923339,2.93424 -2.32541,3.51903 -0.737793,0.30772 -2.323642,0.32175 -2.999402,0.0265 z"
         id="path826-2" />
      <path
         sodipodi:nodetypes="cc"
         inkscape:connector-curvature="0"
         id="path941-5-0"
         d="m 100.96579,197.45734 4.60449,-4.09376"
         style="fill:none;fill-rule:evenodd;stroke:#000000;stroke-width:2.54516315;stroke-linecap:round;stroke-linejoin:miter;stroke-miterlimit:4;stroke-dasharray:none;stroke-opacity:1" />
      <path
         sodipodi:nodetypes="ccc"
         inkscape:connector-curvature="0"
         id="path941-5-0-6"
         d="m 102.04916,179.69235 -0.82108,-3.82447 1.82918,-3.52866"
         style="fill:#c2c2c2;fill-opacity:1;fill-rule:evenodd;stroke:#000000;stroke-width:2.35768342;stroke-linecap:round;stroke-linejoin:miter;stroke-miterlimit:4;stroke-dasharray:none;stroke-opacity:1" />
      <path
         sodipodi:nodetypes="cccccccc"
         inkscape:connector-curvature="0"
         id="path1665-3"
         d="m 82.385556,165.69939 c -1.794261,-0.0802 -2.77569,2.06274 -1.542936,3.36892 l 5.80051,6.33184 9.499151,1.40944 c 2.58157,0.95172 3.899069,-3.00563 1.262191,-3.79124 L 88.891408,171.93609 83.7916,166.3676 c -0.359126,-0.40358 -0.866321,-0.64463 -1.406044,-0.66821 z"
         style="color:#000000;font-style:normal;font-variant:normal;font-weight:normal;font-stretch:normal;font-size:medium;line-height:normal;font-family:sans-serif;font-variant-ligatures:normal;font-variant-position:normal;font-variant-caps:normal;font-variant-numeric:normal;font-variant-alternates:normal;font-feature-settings:normal;text-indent:0;text-align:start;text-decoration:none;text-decoration-line:none;text-decoration-style:solid;text-decoration-color:#000000;letter-spacing:normal;word-spacing:normal;text-transform:none;writing-mode:lr-tb;direction:ltr;text-orientation:mixed;dominant-baseline:auto;baseline-shift:baseline;text-anchor:start;white-space:normal;shape-padding:0;clip-rule:nonzero;display:inline;overflow:visible;visibility:visible;opacity:1;isolation:auto;mix-blend-mode:normal;color-interpolation:sRGB;color-interpolation-filters:linearRGB;solid-color:#000000;solid-opacity:1;vector-effect:none;fill:#000000;fill-opacity:1;fill-rule:evenodd;stroke:#ffffff;stroke-width:0.63999999;stroke-linecap:round;stroke-linejoin:miter;stroke-miterlimit:4;stroke-dasharray:none;stroke-dashoffset:0;stroke-opacity:1;color-rendering:auto;image-rendering:auto;shape-rendering:auto;text-rendering:auto;enable-background:accumulate" />
      <path
         sodipodi:nodetypes="cccccc"
         inkscape:connector-curvature="0"
         id="path1783"
         d="m 76.315809,157.35101 0.732611,2.42081 11.202343,-1.57287 -3.980673,-1.05658 0.289155,-2.12921 z"
         style="fill:#9d9d9d;fill-opacity:1;fill-rule:evenodd;stroke:#ffffff;stroke-width:0.65100002;stroke-linecap:butt;stroke-linejoin:miter;stroke-miterlimit:4;stroke-dasharray:none;stroke-opacity:1" />
    </g>
  </g>
</svg>
