<?xml version="1.0" encoding="UTF-8" standalone="no"?>
<!-- Created with Inkscape (http://www.inkscape.org/) -->

<svg
   xmlns:dc="http://purl.org/dc/elements/1.1/"
   xmlns:cc="http://creativecommons.org/ns#"
   xmlns:rdf="http://www.w3.org/1999/02/22-rdf-syntax-ns#"
   xmlns:svg="http://www.w3.org/2000/svg"
   xmlns="http://www.w3.org/2000/svg"
   xmlns:sodipodi="http://sodipodi.sourceforge.net/DTD/sodipodi-0.dtd"
   xmlns:inkscape="http://www.inkscape.org/namespaces/inkscape"
   width="49.097767mm"
   height="49.097767mm"
   viewBox="0 0 49.097767 49.097767"
   version="1.1"
   id="svg1057"
   inkscape:version="0.92.4 (5da689c313, 2019-01-14)"
   sodipodi:docname="pilot.svg">
  <defs
     id="defs1051" />
  <sodipodi:namedview
     id="base"
     pagecolor="#ffffff"
     bordercolor="#666666"
     borderopacity="1.0"
     inkscape:pageopacity="0.0"
     inkscape:pageshadow="2"
     inkscape:zoom="3.959798"
     inkscape:cx="158.6676"
     inkscape:cy="99.352751"
     inkscape:document-units="mm"
     inkscape:current-layer="layer1"
     showgrid="false"
     fit-margin-top="0"
     fit-margin-left="0"
     fit-margin-right="0"
     fit-margin-bottom="0"
     inkscape:window-width="1920"
     inkscape:window-height="1147"
     inkscape:window-x="-8"
     inkscape:window-y="-8"
     inkscape:window-maximized="1" />
  <metadata
     id="metadata1054">
    <rdf:RDF>
      <cc:Work
         rdf:about="">
        <dc:format>image/svg+xml</dc:format>
        <dc:type
           rdf:resource="http://purl.org/dc/dcmitype/StillImage" />
        <dc:title />
      </cc:Work>
    </rdf:RDF>
  </metadata>
  <g
     inkscape:label="Layer 1"
     inkscape:groupmode="layer"
     id="layer1"
     transform="translate(-66.921358,-152.25469)">
    <path
       id="path1716"
       d="m 97.622203,194.33609 c -0.553224,-0.28523 -1.737416,-1.88205 -6.085607,-8.20611 -0.178219,-0.2592 -0.800982,-0.3545 -4.107148,-0.62843 -2.682699,-0.22231 -4.061969,-0.40821 -4.426244,-0.59657 -0.600507,-0.31054 -1.113643,-0.90448 -1.391161,-1.61024 -0.333303,-0.84763 -3.010362,-13.21879 -3.015499,-13.93517 -0.0219,-3.05677 4.280698,-4.12139 5.689383,-1.40777 0.155702,0.29995 0.811921,2.94565 1.458269,5.87934 0.64635,2.93369 1.235369,5.38759 1.308938,5.45307 0.07356,0.0655 1.712312,0.23607 3.641644,0.37903 4.834907,0.35829 4.225861,-0.17446 7.501882,6.56206 3.00215,6.17339 3.11634,6.57712 2.15632,7.62467 -0.728357,0.79479 -1.771831,0.98054 -2.730777,0.48612 z"
       style="fill:#000000;stroke-width:0.17248438"
       inkscape:connector-curvature="0" />
    <path
       sodipodi:nodetypes="ccccscccccccc"
       id="path1714"
       d="m 84.340903,189.95224 c -2.608824,-0.37064 -4.996163,-0.71561 -5.3052,-0.76661 -0.329554,-0.0543 -0.672765,-0.26197 -0.830063,-0.50203 -0.531744,-0.81156 -3.969876,-18.88203 -3.790451,-19.5969 0.158767,-0.63257 0.779202,-1.09106 1.476439,-1.09106 1.186567,0 1.241209,3.31553 2.857847,10.52462 0.806061,3.59445 1.512431,6.79379 1.569714,7.10964 0.06669,0.36771 0.234838,0.62193 0.467458,0.70678 0.19981,0.0729 2.226127,0.38146 4.502921,0.68572 2.276795,0.30426 4.356738,0.63749 4.622091,0.7405 0.624452,0.24244 1.040656,1.03888 0.893364,1.70952 -0.120434,0.5483 -0.596171,0.9443 -1.289588,1.0734 -0.237166,0.0442 -2.565708,-0.22296 -5.174532,-0.59358 z"
       style="fill:#0a0a0a;fill-opacity:1;stroke-width:0.17248438"
       inkscape:connector-curvature="0" />
    <path
       style="fill:none;fill-rule:evenodd;stroke:#000000;stroke-width:2.67581916;stroke-linecap:round;stroke-linejoin:miter;stroke-miterlimit:4;stroke-dasharray:none;stroke-opacity:1"
       d="m 100.39942,198.52533 4.84086,-4.30392"
       id="path941-5-0"
       inkscape:connector-curvature="0"
       sodipodi:nodetypes="cc" />
    <path
       style="color:#000000;font-style:normal;font-variant:normal;font-weight:normal;font-stretch:normal;font-size:medium;line-height:normal;font-family:sans-serif;font-variant-ligatures:normal;font-variant-position:normal;font-variant-caps:normal;font-variant-numeric:normal;font-variant-alternates:normal;font-feature-settings:normal;text-indent:0;text-align:start;text-decoration:none;text-decoration-line:none;text-decoration-style:solid;text-decoration-color:#000000;letter-spacing:normal;word-spacing:normal;text-transform:none;writing-mode:lr-tb;direction:ltr;text-orientation:mixed;dominant-baseline:auto;baseline-shift:baseline;text-anchor:start;white-space:normal;shape-padding:0;clip-rule:nonzero;display:inline;overflow:visible;visibility:visible;opacity:1;isolation:auto;mix-blend-mode:normal;color-interpolation:sRGB;color-interpolation-filters:linearRGB;solid-color:#000000;solid-opacity:1;vector-effect:none;fill:#000000;fill-opacity:1;fill-rule:evenodd;stroke:#ffffff;stroke-width:0.72368842;stroke-linecap:round;stroke-linejoin:miter;stroke-miterlimit:4;stroke-dasharray:none;stroke-dashoffset:0;stroke-opacity:1;color-rendering:auto;image-rendering:auto;shape-rendering:auto;text-rendering:auto;enable-background:accumulate"
       d="m 80.631146,165.36548 c -1.995475,0.14324 -3.286121,2.69663 -1.892167,4.1736 l 8.921353,7.25431 6.79144,0.97008 c 3.013639,0.39109 4.149061,-3.04431 1.427239,-4.14526 l -6.148878,-0.83635 -5.741373,-6.41476 c -0.673357,-0.78515 -1.980594,-1.16611 -3.357614,-1.00162 z"
       id="path1665-3"
       inkscape:connector-curvature="0"
       sodipodi:nodetypes="cccccccc" />
    <path
       sodipodi:nodetypes="cccccccc"
       inkscape:connector-curvature="0"
       id="path1832"
       d="m 86.32942,158.19736 -8.861013,0.29293 c -1.510757,-1.02514 -1.588232,-0.63116 -1.887475,-2.32687 2.596994,-0.0281 6.073919,-1.89341 8.739174,-2.74536 1.48962,1.2904 0.74843,1.39522 0.27774,3.23199 l -2.955239,0.15592 c 1.757294,-0.0674 3.282223,0.31651 4.90651,0.87877 z"
       style="fill:#000000;fill-opacity:1;fill-rule:evenodd;stroke:none;stroke-width:0.41009682px;stroke-linecap:butt;stroke-linejoin:miter;stroke-opacity:1" />
    <path
       sodipodi:nodetypes="ccccsccc"
       id="path826-2-1"
       d="m 79.84177,164.06555 c -0.799013,-0.34905 -1.615835,-1.11192 -2.029134,-1.89508 -0.293083,-0.55537 -0.423803,-2.01354 -0.382013,-2.84373 l 7.944214,-0.3036 c 0.04294,0.25243 0.06511,1.04402 0.06511,1.31482 0,1.61586 -0.970739,3.08487 -2.444791,3.69968 -0.775668,0.32351 -2.442926,0.33827 -3.153376,0.0279 z"
       style="fill:#000000;stroke-width:0.17248438"
       inkscape:connector-curvature="0" />
    <path
       style="color:#000000;font-style:normal;font-variant:normal;font-weight:normal;font-stretch:normal;font-size:medium;line-height:normal;font-family:sans-serif;font-variant-ligatures:normal;font-variant-position:normal;font-variant-caps:normal;font-variant-numeric:normal;font-variant-alternates:normal;font-feature-settings:normal;text-indent:0;text-align:start;text-decoration:none;text-decoration-line:none;text-decoration-style:solid;text-decoration-color:#000000;letter-spacing:normal;word-spacing:normal;text-transform:none;writing-mode:lr-tb;direction:ltr;text-orientation:mixed;dominant-baseline:auto;baseline-shift:baseline;text-anchor:start;white-space:normal;shape-padding:0;clip-rule:nonzero;display:inline;overflow:visible;visibility:visible;opacity:1;isolation:auto;mix-blend-mode:normal;color-interpolation:sRGB;color-interpolation-filters:linearRGB;solid-color:#000000;solid-opacity:1;vector-effect:none;fill:#000000;fill-opacity:1;fill-rule:evenodd;stroke:none;stroke-width:8.13257504;stroke-linecap:round;stroke-linejoin:miter;stroke-miterlimit:4;stroke-dasharray:none;stroke-dashoffset:0;stroke-opacity:1;color-rendering:auto;image-rendering:auto;shape-rendering:auto;text-rendering:auto;enable-background:accumulate"
       d="m 154.78516,59.566406 -13.5625,34.925782 -16.42969,0.01758 2.83398,-15.460938 3.5586,-4.103516 c 2.33337,-2.62318 0.46978,-6.77168 -3.04102,-6.769531 -1.19846,9.74e-4 -2.33547,0.530531 -3.10742,1.447266 l -5.01367,5.779297 -4.73047,25.595344 c -1.00414,5.35182 7.04002,7.04743 8.00195,1.68786 l 0.44985,-1.68786 h 19.02344 l 6.63218,7.51599 0.51758,31.27735 7.49805,4.82617 c 7.37835,-26.9486 17.48845,-82.921191 6.98242,-84.033204 z"
       transform="matrix(0.26458333,0,0,0.26458333,66.921358,152.25469)"
       id="path1929"
       inkscape:connector-curvature="0"
       sodipodi:nodetypes="ccccccccccccccccc" />
  </g>
</svg>
