<?xml version="1.0" encoding="UTF-8" standalone="no"?>
<svg
   xmlns:dc="http://purl.org/dc/elements/1.1/"
   xmlns:cc="http://creativecommons.org/ns#"
   xmlns:rdf="http://www.w3.org/1999/02/22-rdf-syntax-ns#"
   xmlns:svg="http://www.w3.org/2000/svg"
   xmlns="http://www.w3.org/2000/svg"
   xmlns:sodipodi="http://sodipodi.sourceforge.net/DTD/sodipodi-0.dtd"
   xmlns:inkscape="http://www.inkscape.org/namespaces/inkscape"
   width="256"
   height="256"
   version="1.1"
   id="svg4"
   sodipodi:docname="suitcase.svg"
   inkscape:version="0.92.4 (5da689c313, 2019-01-14)">
  <metadata
     id="metadata10">
    <rdf:RDF>
      <cc:Work
         rdf:about="">
        <dc:format>image/svg+xml</dc:format>
        <dc:type
           rdf:resource="http://purl.org/dc/dcmitype/StillImage" />
      </cc:Work>
    </rdf:RDF>
  </metadata>
  <defs
     id="defs8" />
  <sodipodi:namedview
     pagecolor="#ffffff"
     bordercolor="#666666"
     borderopacity="1"
     objecttolerance="10"
     gridtolerance="10"
     guidetolerance="10"
     inkscape:pageopacity="0"
     inkscape:pageshadow="2"
     inkscape:window-width="1920"
     inkscape:window-height="1147"
     id="namedview6"
     showgrid="false"
     inkscape:zoom="0.921875"
     inkscape:cx="128"
     inkscape:cy="128"
     inkscape:window-x="-8"
     inkscape:window-y="-8"
     inkscape:window-maximized="1"
     inkscape:current-layer="svg4" />
  <path
     d="M 76.20339,86.562712 V 190.15593 H 65.844068 A 15.538983,15.538983 0 0 1 50.305085,174.61695 V 102.10169 A 15.538983,15.538983 0 0 1 65.844068,86.562712 Z m 5.179661,0 h 23.308479 v -9.064407 a 11.654237,11.654237 0 0 1 11.65423,-11.654237 h 23.30848 a 11.654237,11.654237 0 0 1 11.65423,11.654237 v 9.064407 h 23.30848 V 190.15593 H 81.383051 Z m 31.077969,0 h 31.07796 v -9.064407 a 3.8847458,3.8847458 0 0 0 -3.88474,-3.884745 h -23.30848 a 3.8847458,3.8847458 0 0 0 -3.88474,3.884745 z m 67.33559,0 h 10.35932 a 15.538983,15.538983 0 0 1 15.53899,15.538978 v 72.51526 a 15.538983,15.538983 0 0 1 -15.53899,15.53898 h -10.35932 z"
     id="path2"
     inkscape:connector-curvature="0"
     style="stroke-width:0.64745766" />
</svg>
